<svg width="512" height="512" viewBox="0 0 512 512" fill="none" xmlns="http://www.w3.org/2000/svg">
  <rect width="512" height="512" rx="128" fill="#FFF8EA"/>
  <path d="M256 92C323 92 371 146 371 216C371 294 316 346 256 346C196 346 141 294 141 216C141 146 189 92 256 92Z" fill="#F3E2C6"/>
  <path d="M256 112C312 112 350 159 350 216C350 276 309 322 256 322C203 322 162 276 162 216C162 159 200 112 256 112Z" stroke="#8B532C" stroke-width="24"/>
  <path d="M256 128V306M216 154C201 184 195 208 195 236C195 268 210 292 234 309M296 154C311 184 317 208 317 236C317 268 302 292 278 309M214 222H298" stroke="#5A321E" stroke-width="20" stroke-linecap="round"/>
</svg>
